<?xml version="1.0" encoding="UTF-8" standalone="no"?>
<svg
   xmlns:dc="http://purl.org/dc/elements/1.1/"
   xmlns:cc="http://creativecommons.org/ns#"
   xmlns:rdf="http://www.w3.org/1999/02/22-rdf-syntax-ns#"
   xmlns:svg="http://www.w3.org/2000/svg"
   xmlns="http://www.w3.org/2000/svg"
   xmlns:sodipodi="http://sodipodi.sourceforge.net/DTD/sodipodi-0.dtd"
   xmlns:inkscape="http://www.inkscape.org/namespaces/inkscape"
   inkscape:version="1.0 (4035a4fb49, 2020-05-01)"
   sodipodi:docname="account.svg"
   id="svg8"
   viewBox="0 0 89.409 89.395"
   version="1.1"
   height="89.395mm"
   width="89.409mm">
  <defs
     id="defs12" />
  <sodipodi:namedview
     inkscape:current-layer="svg8"
     inkscape:window-maximized="1"
     inkscape:window-y="-9"
     inkscape:window-x="-9"
     inkscape:cy="168.93543"
     inkscape:cx="168.96188"
     inkscape:zoom="2.4565599"
     showgrid="false"
     id="namedview10"
     inkscape:window-height="1001"
     inkscape:window-width="1920"
     inkscape:pageshadow="2"
     inkscape:pageopacity="0"
     guidetolerance="10"
     gridtolerance="10"
     objecttolerance="10"
     borderopacity="1"
     bordercolor="#666666"
     pagecolor="#ffffff" />
  <metadata
     id="metadata2">
    <rdf:RDF>
      <cc:Work
         rdf:about="">
        <dc:format>image/svg+xml</dc:format>
        <dc:type
           rdf:resource="http://purl.org/dc/dcmitype/StillImage" />
        <dc:title />
      </cc:Work>
    </rdf:RDF>
  </metadata>
  <g
     style="fill:#ffefd5;fill-opacity:1"
     id="g6"
     transform="translate(-73.626 -5.2153)">
    <path
       style="fill:#ffefd5;fill-opacity:1"
       id="path4"
       stroke-width=".26458"
       shape-rendering="geometricPrecision"
       d="m112.1 94.251c-22.155-3.2351-38.47-22.025-38.47-44.308 0-22.429 16.608-41.369 38.878-44.334 26.683-3.5527 50.531 17.371 50.531 44.334 0 22.37-16.39 41.15-38.679 44.318-3.3012 0.46927-9.0061 0.46422-12.26-0.0109zm14.379-4.3165c5.2611-1.1364 10.101-3.1704 14.573-6.1244l2.2029-1.4552-0.13695-3.3073c-0.17101-4.1298-0.81164-6.699-2.54-10.186-3.6278-7.3201-10.405-12.358-18.341-13.634-2.5326-0.40714-7.6548-0.20441-9.8286 0.38899-9.0578 2.4726-15.88 9.2346-18.169 18.007-0.34439 1.3204-0.60617 3.3608-0.69589 5.424l-0.14382 3.3073 2.0823 1.3616c5.4317 3.5518 10.612 5.5983 16.634 6.5708 3.396 0.54845 11.062 0.36017 14.363-0.35275zm-36.45-15.385c0.17732-1.0914 0.71323-3.0834 1.1909-4.4266 2.6054-7.3261 8.0014-13.232 15.053-16.477 1.1763-0.54118 2.3513-1.0578 2.6112-1.1481 0.38715-0.1345 0.0973-0.53551-1.6043-2.2193-2.4142-2.389-3.7362-4.7441-4.4409-7.9113-1.8268-8.2109 3.314-16.568 11.538-18.757 1.855-0.49365 6.0585-0.49365 7.9135 0 9.787 2.6045 14.727 13.541 10.19 22.563-0.98808 1.9652-2.8558 4.2385-4.4032 5.3594l-0.99978 0.72424 1.2503 0.46929c7.1705 2.6914 13.631 8.84 16.48 15.686 0.93763 2.2523 1.9721 6.24 2.244 8.6504l0.17907 1.5875 1.666-1.7896c4.4227-4.7509 7.7988-11.506 9.4519-18.912 0.48937-2.1923 0.57635-3.4005 0.57635-8.0059 0-4.6054-0.087-5.8136-0.57635-8.0059-1.2316-5.5174-3.2307-10.287-6.1819-14.748-2.2485-3.3992-7.6806-8.8314-11.08-11.08-4.5248-2.993-9.9261-5.2236-15.254-6.2995-3.3287-0.67219-11.743-0.67037-14.908 3e-3 -9.1663 1.9504-15.834 5.6074-22.093 12.118-5.407 5.624-9.0343 12.621-10.634 20.513-0.7287 3.5941-0.65814 11.977 0.13148 15.62 1.5337 7.074 4.953 13.918 9.3482 18.712l1.6765 1.8285 0.17619-1.0348c0.09691-0.56911 0.32127-1.9277 0.49858-3.0191zm30.45-23.818c3.7706-0.71508 6.9246-3.1957 8.6454-6.7995 0.94328-1.9754 0.9827-2.1707 0.97659-4.8367-7e-3 -3.2622-0.51843-4.8582-2.3533-7.3506-3.5184-4.7795-10.651-6.064-15.76-2.8385-2.4407 1.5407-4.437 4.2736-5.1913 7.1068-2.209 8.2962 5.2484 16.318 13.683 14.719z" />
  </g>
</svg>
